<?xml version="1.0" encoding="UTF-8"?>
<svg xmlns="http://www.w3.org/2000/svg" xmlns:xlink="http://www.w3.org/1999/xlink" viewBox="0 0 1039.18 1039.18">
  <defs>
    <style>
      .cls-1 {
        fill: none;
      }

      .cls-2 {
        fill: #231f20;
      }

      .cls-3 {
        isolation: isolate;
      }

      .cls-4 {
        clip-path: url(#clippath-1);
      }

      .cls-5 {
        fill: #d4d4d4;
      }

      .cls-6 {
        fill: #fff;
      }

      .cls-7 {
        clip-path: url(#clippath);
      }
    </style>
    <clipPath id="clippath">
      <rect class="cls-1" x="0" y="0" width="1039.18" height="1039.18"/>
    </clipPath>
    <clipPath id="clippath-1">
      <rect class="cls-1" x="0" y="0" width="1039.18" height="1039.18"/>
    </clipPath>
    <clipPath id="clippath-2">
      <rect class="cls-1" x="0" y="0" width="1039.18" height="1039.18"/>
    </clipPath>
    <clipPath id="clippath-3">
      <rect class="cls-1" x="82.61" y="166.36" width="879.73" height="619.11"/>
    </clipPath>
    <clipPath id="clippath-5">
      <rect class="cls-1" x="0" y="0" width="1039.18" height="1039.18"/>
    </clipPath>
  </defs>
  <g class="cls-3">
    <g id="Layer_1" data-name="Layer 1">
      <g class="cls-7">
        <g class="cls-4">
          <path class="cls-2" d="M825.85,503.23c-13.33-15.58-37.26-29.77-36.96-27.18-1.5,7.61,8.35,27.53,7.25,34.91-4.1,27.29-45.13,18-62.96,17.24-18.34-.78-35.76.87-52.67,4.87,38.88-37.95,96.09-81.82,107.4-126,8.1-30.12-3.74-51.86-17.66-71.11-43.05-48.85-127.14-34.76-141.38,40.82-43.27,40.59,44.18,87.45,73.31,40.12.22-17.64,5.28-29.4-13.13-36.66,3.95-9.06,23.59-13.26,35.86-9.62,16.16,4.79,1.31,4.31,1.56,6.81.1,1.01.16,2.01.21,3.01,6.25,3.67,5.31,13.59-1.53,15.73-1.28,5.44-3.27,10.78-5.85,16.03,1.9,6.72-.54,15.1-8.36,14.11-38.54,51.5-88.61,75.47-111.36,135.06-10.22-6.06-22.32,5.41-17.86,16.65,14.03,28.46,41.91,30.38,64.65,20.02,69.68-23.02,178.32,47.14,192.31-60.04.25-9.29.51-19.2-12.82-34.77"/>
          <path class="cls-2" d="M523.23,565.89c81.63-4.2,148.75-151.72,50.78-186.38,15.16-20.78,77.29-72.94,47.57-96.24-41.62-32.62-41.15-12.8-76.86-1.06-34.54,9.01-62.76,9.25-65.37,53.38-26.27,15.23,13.53,60.05,41.88,39.65,5.37-3.28,7.32-10.03,5.3-15.45,8.03-10.36,15.63-17.45,28.72-21.09-13.1,18.01-22.29,29.35-38.39,47.53-34.85-7.6-19.58,42.9,6.89,39.05,12.44-.33,24.22-2.03,35.69-6.2,8.89,34.9-10.5,88.28-49.09,95.27-2.49-20.34,25.77-27.37,13.27-50.16-9.24-24.82-50.63-39.09-57.78-5.59-2.56,2-4.94,4.32-7.08,6.9,8.99-18.88-7.16-36.97-24.61-42.7-14.46-3.49-20.15,14.36-10.93,23.74-6.3,15.34-16.17,27.57-29.86,46.36,14.19-56.01,50.85-123.99,72.21-172.81,5.33-17.28,36.16-62.16,14.08-73.37-10.89-7.56-22.64-18.42-36.91-11.96-27.2,9.85-31.31,41.9-40.57,66.21-18.94,49.75-38.87,99.14-57.75,148.92-22.65,27.38-78.35,93.95-114.09,97.13-10.18-26.39,10.69-74.36,36.11-105.01,19.5-15.12,67.53-35.96,71.3-44.7,3.77-8.74-3.65-25.9-22.04-24.91-2.92.82-5.87,6.67-8.91,8.59-4.13.03-8.22,0-12.24-.57-8.04-17.97,26.76-50.91,32.23-52.5-7.28,21.23,47.52,23.51,62.74-7.72,22.49-12.08-16.69-49.48-33.73-44.14-55.91-21.28-181.51,77.35-101.46,115.89-205.57,110.63-63.2,333.57,81.16,143.07,10.3,31.12,42.38,36.04,66.35,13.48,9.79-10.03,33.84-42.31,47.86-67.19-14.87,36.82,16.93,64.95,52.01,81.87-53.86,6.79-227.29,68.2-226.7,77.57,1.08,12.01,21.29,47.2,31.85,38.08,10.56-9.12,21.22-18.4,26.8-22.93,41.29-33.53,97.47-45.1,148.66-52.22,26.87-3.4,92.28-12.78,40.93-37.81"/>
          <path class="cls-6" d="M210.93,584.01c-1.94,0-3.9-.08-5.83-.23-23.9-1.91-38.69-15.95-47.94-45.53-9.1-28.39,11.39-91.76,73.52-136.91,7.37-6.27,16.1-11.56,25.66-15.59-2.66-.63-5.75-1.53-9.23-2.8-10.15-3.7-16.13-10.59-17.3-19.91-2.82-22.62,22.66-53.55,41.36-66.28,12.79-8.71,38.41-23.33,66.32-23.33,7.25,0,14.22,1.02,20.7,3.02,9.55,2.95,15.3,7.62,17.1,13.89,2.05,7.16-1.16,15.7-9.54,25.41-5.1,5.91-16.92,15.28-26.9,15.28-2.65,0-5.03-.66-7.05-1.97-7.3-4.71-3.45-11.52-.91-16.04.66-1.16,1.32-2.34,1.82-3.44-20.93,2.98-53.1,28.2-53.79,47.18-.26,7.13,2.39,11.85,8.36,14.88,6.17,3.13,12.8,3.39,19.06,3.39.99,0,1.98,0,2.98-.02,1.01,0,2.03-.02,3.04-.02,2.26,0,4.01.04,5.67.13l.41.02c.72.02,1.93.06,2.82,1.1.93,1.07.8,2.36.71,3.21-.2,1.92-1.1,4.13-1.9,5.47-2.83,4.72-13.03,8.7-26.09,13.42-3.63,1.31-6.76,2.45-8.75,3.34-12.52,5.64-22.42,11.41-33.04,22.76-32.32,32.32-38.42,67.48-37.13,81.56,1.24,13.58,4.23,26.15,17.65,26.15.9,0,1.86-.06,2.83-.17,15.73-1.8,46.99-18.98,106.64-90.51,9.35-24.21,19.12-48.71,28.56-72.41,8.88-22.28,18.07-45.32,26.88-68.06,1.77-4.56,3.32-9.35,4.95-14.41,6.35-19.62,13.54-41.87,35.67-49.75,3.48-1.24,7.41-1.92,11.07-1.92,8.85,0,14.8,3.96,16.33,10.86,2.31,10.43-7.66,33.19-18.07,55.61-1.27,2.72-2.37,5.11-3.21,7-5.59,12.56-12.24,26.39-19.28,41.04-23.02,47.89-49.11,102.17-54.62,144.76-.24,1.84-.51,6.77-.5,10,.55-.3,1.04-.62,1.41-.98,11-10.51,36.5-44.98,43.59-57.95.84-1.53,2.69-5.99,4.32-9.92,2.88-6.93,3.4-8.08,3.98-8.73,1.18-1.35,3.13-2.06,5.63-2.06,2.77,0,7.52,1.01,9.26,3.78,1.41,2.23,1.45,5.51,1.35,7.27-1.08,18.8-43.55,76.05-57.04,89.64-6.3,6.35-18.6,17-30.16,17-5.46,0-10.1-2.3-13.78-6.84-3.59-4.41-6.61-16.13-6.61-21.15,0-3.07-.13-6.31-.26-9.43-.12-2.98-.24-6.02-.26-9.04-6.65,9.86-14.61,19.02-23.38,28.85-24.66,27.64-58,59.38-97.1,59.38h0Z"/>
          <path class="cls-2" d="M449.33,237.56c6.27,0,12.3,2.21,13.76,8.8,2.71,12.23-15.36,48.03-21.12,60.96-23.66,53.13-66.84,130.27-74.11,186.53-.28,2.2-.96,13.18-.1,14.2,2.25-.91,4.12-1.67,5.44-2.94,10.93-10.44,36.59-44.89,44.08-58.6,1.78-3.26,7.2-17.3,7.97-18.18.71-.82,2.1-1.16,3.65-1.16,2.8,0,6.13,1.11,7.04,2.55.91,1.45,1.05,4,.95,5.72-1.01,17.47-42.77,74.33-56.28,87.94-6.62,6.67-18.05,16.22-28.29,16.22-4.26,0-8.32-1.66-11.74-5.86-3.09-3.8-6.02-14.78-6.02-19.49,0-8.03-.85-16.54-.38-24.46.04-.62.11-3.27.01-3.45-7.6,13.29-17.95,25.12-28.14,36.54-24.01,26.91-56.58,58.5-95.14,58.5-1.86,0-3.73-.07-5.62-.23-24.67-1.97-37.49-17.63-45.64-43.69-8.52-26.6,10.99-89.29,72.64-134.05,9.93-8.47,22.28-14.88,34.73-18.78h-.08c-.83,0-7.88-.12-18.94-4.16-36.48-13.31-1.82-63.52,24.64-81.54,18.24-12.43,41.82-22.87,64.84-22.87,6.74,0,13.43.89,19.93,2.9,21.16,6.53,18.84,20.6,6.34,35.07-4.79,5.54-16.05,14.36-24.91,14.36-2.04,0-3.95-.47-5.62-1.55-8.22-5.3,2.96-13.67,2.91-20.19-21.29.37-59.06,28.24-59.85,50.01-.29,7.88,2.75,13.75,9.8,17.32,6.52,3.31,13.32,3.68,20.25,3.68,2,0,4-.03,6.02-.03,1.84,0,3.68.03,5.53.12,1.42.08,1.62-.13,1.46,1.42-.14,1.36-.84,3.21-1.55,4.4-3.54,5.92-26.12,12.32-33.65,15.71-12.37,5.57-22.65,11.36-33.88,23.36-34.14,34.14-38.99,70.96-37.83,83.6,1.09,11.92,3.8,28.55,20.28,28.55.99,0,2.04-.06,3.13-.19,33.5-3.84,87.28-66.14,108.64-91.78,18.18-47.09,37.36-93.81,55.6-140.87,8.91-22.99,12.87-53.31,39.06-62.63,2.92-1.04,6.59-1.77,10.19-1.77M449.33,232.3v5.27-5.27c-3.95,0-8.2.74-11.95,2.07-23.36,8.32-30.76,31.21-37.3,51.42-1.63,5.03-3.16,9.78-4.9,14.27-8.81,22.73-17.99,45.76-26.87,68.04-9.4,23.57-19.11,47.94-28.42,72.03-62.01,74.3-92.17,87.82-104.64,89.25-.88.1-1.73.15-2.53.15-9.26,0-13.48-6.66-15.03-23.76-.57-6.25.55-17.81,5.4-31.5,6.19-17.46,16.59-33.58,30.91-47.9l.06-.06.06-.06c10.37-11.08,19.66-16.51,32.2-22.16,1.89-.85,5.13-2.02,8.56-3.26,14-5.06,24.17-9.07,27.45-14.54.88-1.47,2-4.06,2.26-6.54.1-.98.35-3.28-1.34-5.22-1.65-1.9-3.8-1.97-4.72-2-.1,0-.22,0-.35-.01-1.71-.09-3.5-.13-5.81-.13-1.02,0-2.04,0-3.06.02-.99,0-1.97.01-2.95.01-5.94,0-12.22-.24-17.87-3.11-5.01-2.54-7.14-6.38-6.92-12.44.3-8.22,8.06-19.38,20.26-29.11,8.52-6.8,17.89-11.92,25.85-14.32-2.52,4.75-5.57,12.49,2.72,17.84,2.46,1.58,5.31,2.39,8.48,2.39,10.86,0,23.48-9.93,28.89-16.19,9-10.42,12.4-19.79,10.08-27.86-2.06-7.18-8.41-12.46-18.86-15.68-6.74-2.08-13.97-3.13-21.48-3.13-28.62,0-54.77,14.9-67.81,23.78-10.46,7.12-21.55,18.52-29.68,30.48-6.78,9.98-14.5,24.72-12.81,38.31.9,7.23,4.93,16.92,19.01,22.06.89.32,1.75.62,2.59.9-7.24,3.63-13.91,7.99-19.75,12.95-63.07,45.88-83.73,110.65-74.39,139.8,4.56,14.59,10.42,25.38,17.89,32.97,8.48,8.61,19.05,13.3,32.34,14.37,2,.16,4.03.24,6.04.24,18.53,0,36.87-6.58,56.06-20.12,17.21-12.14,32.02-27.83,43.01-40.14,6.91-7.74,13.32-15.07,19-22.67.02.4.03.81.05,1.21.13,3.24.25,6.3.25,9.33,0,5.49,3.09,17.75,7.2,22.81,4.15,5.11,9.62,7.81,15.83,7.81,11.89,0,23.98-9.67,32.03-17.78,13.07-13.16,56.64-71.16,57.8-91.35.12-2.07.05-5.97-1.75-8.83-2.17-3.44-7.48-5.01-11.49-5.01s-6.44,1.61-7.62,2.96c-.85.97-1.3,1.94-4.43,9.46-1.53,3.68-3.43,8.25-4.2,9.66-6.39,11.69-27.86,40.99-39.86,53.98.09-1.47.18-2.75.28-3.45,5.45-42.17,31.44-96.25,54.38-143.96,7.05-14.67,13.71-28.52,19.32-41.11.83-1.86,1.93-4.22,3.2-6.96,10.6-22.83,20.75-46.05,18.26-57.29-1.79-8.09-8.86-12.92-18.9-12.92"/>
          <path class="cls-6" d="M592.37,581.3c-3.16,0-5.63-1.01-7.33-3.01-2.38-2.8-3.03-7.32-1.97-13.83,3.87-23.85,25.84-55.47,39.66-70.91,7.22-8.06,16.69-16.68,26.72-25.81,29.99-27.3,63.99-58.23,60.5-92.58-1.04-10.22-8.02-16.82-17.8-16.82-5.58,0-11.2,2.21-15.84,6.22-4.41,3.81-8.73,12.54-7.27,16.59.21.59.86,2.39,5.07,2.48l2.53.05.04,2.53c.12,7.2-3.18,14.59-9.3,20.81-7.5,7.63-18.03,12.37-27.47,12.37-10.58,0-18.28-5.68-21.7-15.99-10.03-30.25,16.67-65.5,37.88-79.79,13.27-8.95,27.89-13.68,42.29-13.68,18.98,0,36.18,8.18,47.2,22.43,11.95,15.46,15.34,36.23,9.54,58.49-8.86,34-46.4,67.89-79.52,97.78-16.11,14.55-31.34,28.29-42.4,41.07-.66.76-1.33,1.53-2,2.29,25.76-11.64,51.79-17.32,79.31-17.32,2.85,0,5.76.06,8.64.18,2.81.12,6.21.45,9.81.8,5.89.57,12.57,1.22,19.11,1.22,18.09,0,27.3-5.11,28.98-16.09.23-1.5.02-3.96-.19-6.56-.47-5.68-.97-11.56,2.06-14.85.9-.98,2.53-2.14,5.21-2.14,1.51,0,3.19.36,5.14,1.1,11.78,4.48,15.03,28.13,14.82,35.78-.79,29.28-25.3,57.81-52.47,61.05-5.13.61-10.28.91-15.77.91h0c-14.13,0-27.88-2.05-41.18-4.02-13.25-1.97-26.96-4.01-40.99-4.01-12.93,0-24.9,1.74-36.59,5.31-2.14.65-4.75,1.74-7.51,2.89-5.67,2.37-12.1,5.05-17.2,5.05"/>
          <path class="cls-2" d="M707.42,383.58c-2.27,29.89-32.65,57.56-59.73,82.21-10.08,9.18-19.6,17.84-26.91,26-14.03,15.67-36.34,47.84-40.3,72.25-1.19,7.31-.35,12.54,2.57,15.96,1.53,1.79,4.38,3.93,9.33,3.93,5.62,0,12.31-2.79,18.21-5.25,2.7-1.13,5.25-2.19,7.27-2.81,11.43-3.5,23.15-5.2,35.82-5.2,13.84,0,27.45,2.02,40.6,3.98,13.4,1.99,27.25,4.05,41.57,4.05,5.6,0,10.86-.3,16.09-.93,14.09-1.68,27.71-9.65,38.34-22.44,10.08-12.13,16.08-27.13,16.45-41.15.17-6.29-2.24-32.88-16.52-38.31-2.25-.86-4.23-1.27-6.07-1.27-3.63,0-5.89,1.63-7.15,2.99-3.81,4.14-3.24,10.89-2.75,16.85.18,2.22.4,4.74.21,5.94-.99,6.45-4.88,13.86-26.38,13.86-6.41,0-13.02-.64-18.86-1.21-3.64-.35-7.08-.68-9.96-.81-2.92-.12-5.87-.18-8.75-.18-24.04,0-46.95,4.27-69.53,13,10.23-10.84,23-22.37,36.39-34.45,33.4-30.14,71.25-64.31,80.31-99.08,6.01-23.06,2.46-44.64-10-60.76-11.52-14.91-29.48-23.46-49.28-23.46h0c-14.92,0-30.06,4.88-43.76,14.13-12.34,8.32-24.24,21.57-31.84,35.44-6.47,11.82-12.95,29.63-7.07,47.37,3.75,11.31,12.57,17.8,24.2,17.8,10.12,0,21.37-5.04,29.35-13.16,6.62-6.73,10.19-14.79,10.05-22.7l-.09-5.07-5.07-.11c-.25,0-2.41-.07-2.65-.74-.97-2.71,2.68-10.39,6.51-13.71,4.16-3.6,9.18-5.58,14.12-5.58,6.63,0,14.1,3.8,15.18,14.45.22,2.16.27,4.32.19,6.46l-.11,1.69ZM801.46,514.05c-.71,26.34-23.22,55.29-50.15,58.5-5.24.63-10.39.89-15.47.89-27.97,0-53.81-8.03-82.17-8.03-11.89,0-24.24,1.41-37.36,5.43-6.7,2.05-17.04,7.83-23.94,7.83-5.17,0-8.41-3.25-6.7-13.78,3.59-22.16,24.13-52.95,39.02-69.58,28.36-31.67,92.72-72.78,87.88-120.41-1.28-12.64-10.31-19.19-20.42-19.19-5.93,0-12.23,2.25-17.56,6.86-6.71,5.79-14.86,23.38-.53,23.69.27,16.06-18.44,30.5-34.14,30.5-8.35,0-15.85-4.08-19.2-14.19-9.18-27.69,14.73-61.87,36.85-76.78,13.5-9.1,27.63-13.23,40.82-13.23,36.69,0,66.09,31.92,54.19,77.63-12.83,49.23-86.99,98.05-121.36,137.8-2.8,3.24-5.74,6.44-8.47,9.79l1.46.47c27.66-13.89,55.71-20.94,86.31-20.94,2.82,0,5.67.06,8.53.18,7.18.3,18.27,2.01,29.03,2.01,14.96,0,29.28-3.31,31.58-18.33.94-6.13-3.79-21.31,4.47-21.31,1.14,0,2.52.29,4.2.93,9.55,3.63,13.37,24.2,13.13,33.25"/>
          <path class="cls-6" d="M494.04,542.55c-2.19,0-4.39-.1-6.55-.3-18.09-1.64-31.48-12.5-36.73-29.8-6.79-22.37,1.38-49.98,19-64.22,5.24-4.23,12.95-7.08,19.19-7.08,8.21,0,13.38,4.83,13.81,12.92.34,6.32-3.57,11.57-7.35,16.63-3.2,4.29-6.51,8.73-7.32,13.81-.98,6.15-.27,10.7,2.13,13.52,1.99,2.33,5.17,3.51,9.46,3.51,5.88,0,13.23-2.32,19.68-6.19,22.56-13.57,33.86-48.67,31.39-73.42-1.19-11.96-7.75-18.81-18-18.81-.97,0-1.97.06-3,.18-1.34.16-3.65.86-6.1,1.61-4.45,1.35-9.99,3.04-14.62,3.04-3.46,0-6.12-.95-7.9-2.83-1.8-1.89-2.62-4.62-2.43-8.12.29-5.52,8.82-15.31,19.95-27.53,2.54-2.79,4.74-5.21,6-6.75,12.16-14.97,23.84-30.66,34.1-44.67-5.42,2.2-11.47,3.89-17.37,5.54-10.47,2.93-21.3,5.95-28.31,11.73-2.36,1.94-4.6,4.57-6.97,7.36-4.61,5.41-9.83,11.54-17.19,13.45-1.68.43-3.27.66-4.73.66-4.72,0-8.33-2.24-10.44-6.48-6.22-12.51,2.52-39.86,8.02-47.12,7.94-10.48,25.51-14.49,41.01-18.02,5.06-1.15,9.85-2.24,13.81-3.46,3.54-1.09,8.03-2.82,12.78-4.65,11.48-4.42,24.49-9.42,33.63-9.42.89,0,1.74.05,2.53.14,12.13,1.45,18.25,10.11,16.77,23.77-1.72,15.89-18.33,36.76-29.33,50.57l-1.75,2.2c-9.17,11.56-19.08,22.78-28.85,33.68,3.38-.61,6.71-.92,9.96-.92,21.14,0,36.77,12.87,41.82,34.43,6.54,27.9-2.96,62.34-24.79,89.87-20.75,26.18-48.2,41.19-75.3,41.19h-.01Z"/>
          <path class="cls-2" d="M582.98,270.25c.77,0,1.51.04,2.21.12,11.7,1.4,15.66,9.85,14.46,20.87-1.73,16.02-20.43,38.69-30.52,51.41-10.93,13.78-22.79,26.94-34.53,40,6.09-1.99,12.06-2.97,17.71-2.97,18.85,0,34.24,10.97,39.26,32.4,12.96,55.28-39.08,127.83-97.53,127.83-2.1,0-4.21-.09-6.32-.29-45.33-4.1-46.13-65.26-16.32-89.35,4.45-3.59,11.52-6.49,17.53-6.49s10.77,2.78,11.18,10.43c.55,10.32-12.74,17.95-14.65,29.88-2.36,14.77,4.76,20.07,14.19,20.07,6.71,0,14.58-2.69,21.03-6.57,23.21-13.96,35.24-49.95,32.65-75.93-1.24-12.43-8.4-21.18-20.62-21.18-1.06,0-2.17.07-3.31.2-4.15.5-13.6,4.62-20.4,4.62-4.63,0-8.03-1.91-7.71-8.18.35-6.69,20.13-26.32,25.36-32.76,13.04-16.05,25.33-32.65,37.53-49.36l-1.33-1.8c-14.93,7.99-38.58,9.41-51.5,20.05-7.34,6.04-13.12,17.69-23.15,20.29-1.5.39-2.85.57-4.07.57-18.09,0-7.37-40.07-.32-49.38,9.9-13.06,37.63-15.67,53.49-20.55,11.92-3.67,33.21-13.95,45.65-13.95M582.98,264.99h0c-9.64,0-22.89,5.1-34.58,9.6-4.71,1.81-9.16,3.53-12.62,4.59-3.87,1.19-8.6,2.27-13.62,3.41-15.94,3.63-34,7.74-42.52,18.99-5.96,7.86-15.04,36.29-8.28,49.89,2.54,5.12,7.09,7.94,12.79,7.94,1.69,0,3.5-.25,5.4-.74,8.16-2.12,13.67-8.58,18.53-14.29,2.29-2.69,4.46-5.23,6.64-7.03,6.58-5.42,17.14-8.37,27.35-11.22,3.15-.88,6.35-1.77,9.48-2.75-8.95,12.13-18.79,25.17-28.96,37.69-1.21,1.49-3.38,3.88-5.9,6.64-13.73,15.08-20.33,23.29-20.63,29.16-.22,4.24.84,7.63,3.15,10.07,2.3,2.42,5.6,3.65,9.81,3.65,5.01,0,10.76-1.75,15.38-3.15,2.23-.68,4.54-1.38,5.64-1.51.92-.11,1.82-.17,2.68-.17,12.4,0,14.89,11.5,15.38,16.44,2.39,23.95-8.45,57.86-30.12,70.9-6.05,3.64-12.9,5.82-18.32,5.82-3.48,0-5.99-.87-7.46-2.59-1.85-2.17-2.38-6.11-1.54-11.39.71-4.44,3.68-8.43,6.83-12.65,4.06-5.44,8.26-11.07,7.87-18.35-.51-9.51-6.81-15.41-16.44-15.41-6.79,0-15.17,3.08-20.84,7.67-18.41,14.87-26.94,43.69-19.86,67.03,5.58,18.38,19.8,29.92,39.01,31.66,2.24.2,4.53.31,6.79.31,27.92,0,56.12-15.38,77.38-42.2,22.31-28.15,32-63.44,25.28-92.1-5.35-22.83-21.95-36.46-44.39-36.46-1.11,0-2.22.03-3.35.1,8.27-9.29,16.54-18.81,24.29-28.59l1.74-2.19c11.18-14.05,28.09-35.28,29.89-51.93,1.63-15.08-5.5-25.04-19.07-26.67-.89-.11-1.85-.16-2.84-.16"/>
          <path class="cls-6" d="M288.81,654.85c-2.61,0-4.95-1.06-6.77-3.07-5-5.51-5.31-17.48-4.77-23.03,4.1-42.2,57.1-52.6,88.77-58.81,51.68-10.14,92.82-15.65,125.81-16.83,1.48-.05,3.13-.15,4.85-.25,3.13-.18,6.37-.37,9.46-.37,2.22,0,4.06.1,5.63.3,2.9.37,5.1,1.85,6.19,4.15,1.68,3.54.36,7.85-1.42,10.71-7.32,11.71-30.79,13.66-47.93,15.09-4,.33-7.46.62-10.17.99-48.11,6.58-102.58,17.52-141.84,48.85-1.59,1.27-4.34,3.93-7.25,6.75-9.54,9.24-16.09,15.31-20.06,15.51-.17,0-.33.01-.5.01"/>
          <path class="cls-2" d="M506.16,555.12c1.91,0,3.72.08,5.29.28,5.9.76,5.4,6.82,2.87,10.86-8.24,13.19-42.12,12.93-56.22,14.86-49.29,6.74-103.37,17.68-143.12,49.4-5.37,4.29-21.03,21.45-25.8,21.69-.12,0-.25,0-.37,0-8.99,0-9.53-16.94-8.92-23.21,3.91-40.25,54.51-50.18,86.67-56.49,39.2-7.69,85.64-15.36,125.39-16.78,4.11-.15,9.48-.61,14.21-.61M506.16,549.86c-3.16,0-6.58.2-9.6.37-1.72.1-3.35.19-4.79.25-33.13,1.19-74.41,6.71-126.21,16.88-16.69,3.28-37.45,7.35-55.22,15.95-21.79,10.54-33.79,25.75-35.68,45.2-.07.7-1.59,17.31,5.44,25.05,2.33,2.57,5.35,3.93,8.72,3.93.21,0,.41,0,.63-.02,4.74-.24,10.54-5.38,21.76-16.25,2.87-2.78,5.57-5.4,7.06-6.58,38.76-30.92,92.8-41.77,140.55-48.29,2.65-.36,6.07-.65,10.03-.98,17.69-1.47,41.93-3.48,49.94-16.31,2.15-3.45,3.7-8.74,1.57-13.24-1.49-3.14-4.41-5.14-8.23-5.64-1.69-.22-3.64-.32-5.97-.32"/>
          <path class="cls-5" d="M801.18,507.9v.99c.83,31.2-20.2,61.37-52.76,64.02-41.96,3.42-78.79-14.84-123.71-4.42-7.82,1.81-27.4,11.3-32.85,10.17-1.44-.3-1.76-1.09-2.64-1.79,18.16-10.83,34.25-17.39,55.71-18.71,32.27-1.99,62.09,7.64,92.62,7.91,39.6.36,60.21-30.4,61.66-67.03,1.98,2.39,1.77,5.93,1.97,8.87"/>
          <path class="cls-5" d="M617.21,543.05c-2.61,2.99-10.17,5.39-9.25,3.79.92-1.6,37.91-45.5,60.11-66.04,42.56-39.39,83.38-63.24,84.8-127.57,12.33,39.58-16.51,74.72-42.86,100.52-22.93,22.45-55.83,49.26-70.54,65.46-8.52,8.18-19.65,20.85-22.26,23.84"/>
          <path class="cls-5" d="M710.51,367.15c-11.08-21.83-44.81-8.45-44.28,13.48.78,1.91,3.41,4.62,2.37,4.47-5.76-.84-7.42-6.67-7.52-7.04-5.76-22.36,34-43.37,46.52-22.84,2.17,3.55,2.11,8.17,2.9,11.93"/>
          <path class="cls-5" d="M619.42,397.78c3.79.31,4.3,5.04,6.43,7.46,11.56,13.08,35.96-2.27,42.95-14.25,1.01-1.73,2.2-2.95,1.67-5.28.68.29,2.31.58,3.25.54.32-.01.23.91.32,1.32-1.38,25.87-48.76,45.18-54.62,10.21"/>
          <path class="cls-5" d="M512.98,557.16c1.88.68,2.72.06,2.92,3.55.7,12.38-20.06,16.44-29.2,17.96-19.58,3.28-39.82,3.85-59.67,7.36-37.59,6.65-85.49,21.81-114.64,47.01-4.67,4.04-14.66,16.27-19.29,18.15-5.87,2.39-7.56-.12-9.82-4.39,10.85-3.6,17.55-13.77,26.15-20.66,49.72-39.8,106.76-45.78,167.56-53.24,11.6-1.42,31.83-3,35.99-15.76"/>
          <path class="cls-5" d="M463.37,248.47c.13,8.38-2.27,14.01-5.14,21.64-21.82,58-54.82,113.12-76.12,172.2-7.54,20.91-14.16,42.91-14.64,65.31-.46.1-1.53,1.74-3.36.52-3.32-2.22-1.44-14.71-.88-18.69,10.24-72.06,60.57-147.53,86.14-215.35l14-25.63Z"/>
          <path class="cls-5" d="M591.21,410.6c14.89,57.23-40.34,134.33-100.29,130.52-23.81-1.51-40.02-19.7-39.89-43.39,2.78-.58,1.87,1.37,2.26,3.11,3.7,16.22,9.55,25.78,26.52,30.69,53.06,15.33,106.23-51.2,109.28-99.27l2.12-21.65Z"/>
          <path class="cls-5" d="M334.21,488.53c-29.11,36.88-75.75,98.78-128.69,94.61-22.88-1.8-37.59-21.27-43.89-39.91,2.1,1.16,2.98,1.13,3.53,2.37,15.97,36.2,52.41,37.65,84.14,19.15,25.14-14.66,76.45-66.76,86.82-93.53,2.28-5.88,3.93-12.9,5.01-19.13,1.84-.18.95,3.2.74,4.19-2.22,10.75-5.68,21.42-7.65,32.25"/>
          <path class="cls-5" d="M436.53,437.97c-1.97,7.67-6.31,16.52-10.15,23.3-6.69,11.82-15.92,25.12-24.01,36.1-9.14,12.41-28.36,37.46-43.17,41.57-21.41,5.95-24.77-14.91-25.08-30.53-.08-4.02,0-8.63-.04-10.27.17,7.14,3.19,21.19,6.17,27.2,5.18,10.42,15.65,8.52,24.19,3.09,21.39-13.59,54.3-64.22,65.17-87.61.62-1.34,6.08-11.48,6.18-11.31.9,1.61,1.67,4.17.75,8.46"/>
          <path class="cls-5" d="M532.45,381.97c.95-5.41,15.65-23.04,15.65-23.04,0,0,24.04-26.65,39.6-52.7,4.36-7.3,12.07-17.4,11.03-25.95.78,2.96.97,5.07,1.01,6.49.51,18.05-16.93,39.33-27.64,53.13-10.84,13.96-34.38,38.8-37.01,42.3-2.63,3.5-2.63-.23-2.63-.23"/>
          <path class="cls-5" d="M278.34,367.68c-.27-.24-1.7-.22-2.97-1.43-4.53-4.32-4.62-11.69-3.7-17.54,3.71-23.49,44.63-50.1,67.78-49.98.82.72-2.55,6.69-2.95,7.87-18.76,1.24-39.43,15-50.69,29.64-7.3,9.49-12.31,19.37-7.48,31.44"/>
          <path class="cls-5" d="M241.59,419.63c9.66-9.63,24.41-19.96,34.67-24.53,10.06-4.48,28.11-12.91,36.38-16.22.24-.1,2.83-1.05,3.84-1.18.02,0,.05,0,.07,0l1.63.07c.95,0,1.06.06,1.22.55l-.13,1.42s0,.05-.01.07c-.38,1.31-.89,2.69-1.07,3.06-.38.83-2.39,3.34-6.55,5.43-7.26,4.51-44.66,15.54-60.48,33.41,0,0-17.78,18.48-26.64,35.99-8.56,16.92-13.22,31.15-10.44,57.91.05.47-.62.64-.8.19-5.93-15.42-3.63-32.99-3.63-32.99,0,0-.03-31.32,31.94-63.19"/>
          <path class="cls-5" d="M370.99,286.89c9.24,11.98-11.58,33.85-22.23,38.61-5.66,2.53-15.02,5.48-17.63-2.16,17.68,1.34,37.7-19.64,37.87-36.45h1.99Z"/>
          <path class="cls-5" d="M551.83,414.47c-4.31-10.51-11.01-14.87-22.51-13.58-6.36.71-16.98,6.1-23.87,3.92-1.26-.4-1.65-.73-2.5-1.6.4-.15,5.8-2.21,8.11-2.85,11.71-3.24,20.98-10.64,33.35-2.94,3.3,2.05,6.89,8.27,7.76,11.98.43,1.84-.61,3.59-.34,5.07"/>
          <path class="cls-5" d="M498.12,447.79c.14.17.38.59,1.16,2.59,4.28,11-9.58,19.98-12.77,29.92-1.39,4.35-1.74,4.71-.86,14.4-5.54-1.59-5.53-11.65-4.84-16.15,1.95-12.71,13.35-19.48,17.3-30.76"/>
          <path class="cls-5" d="M476.06,349.07c16,1.2,23.69-18.16,35.06-25.12,7.64-4.68,47.97-16.95,57.57-18.34.59-.09,1.61-.29,1.46.48-2.4,1.97-5.2,5.46-6.78,8.02l-47.78,16.24c-9.66,5.89-20.58,27.41-34.43,23.31-2.72-.8-4.09-3.06-5.1-4.6"/>
        </g>
      </g>
    </g>
  </g>
</svg>